<svg fill="none" xmlns="http://www.w3.org/2000/svg" viewBox="0 0 311 169"><path d="M171.76 66.952h17.999v18.252c0 12-8.14 17.717-24.759 17.717-16.618 0-24.758-5.746-24.758-17.717V66.952h17.998v14.59c0 5.211 1.352 7.408 6.789 7.408 5.436 0 6.788-2.197 6.788-7.407v-14.59h-.057Zm20.59 0h43.236V77.74h-25.237v2.507h24.308v8.337h-24.308v2.507h25.237v10.788H192.35V66.952Zm-53.714 23.886c0 7.914-8.928 12.111-25.8 12.111s-25.35-4.112-25.604-12.985h17.999c.169 1.972 2.45 2.648 7.661 2.648 4.901 0 7.239-.535 7.239-2.028 0-1.352-.873-1.718-4.704-1.83l-8.506-.198c-13.549-.31-19.66-4.056-19.66-10.731 0-8.338 7.548-11.887 25.293-11.887 17.745 0 24.73 3.746 24.984 12.872h-17.999c-.169-1.915-2.197-2.563-7.041-2.563-4.845 0-6.732.479-6.732 1.972 0 1.352.873 1.718 4.422 1.83l8.957.254c14.759.423 19.463 3.437 19.463 10.535h.028ZM14.478 66.952h17.998v34.927H14.478V66.952Zm71.29 23.886c0 7.914-8.93 12.111-25.801 12.111-16.872 0-25.35-4.112-25.604-12.985h17.999c.169 1.972 2.45 2.648 7.661 2.648 4.901 0 7.239-.535 7.239-2.028 0-1.352-.873-1.718-4.704-1.83l-8.506-.198c-13.548-.31-19.66-4.056-19.66-10.731 0-8.338 7.548-11.887 25.293-11.887 17.745 0 24.73 3.746 24.984 12.872H66.671c-.17-1.915-2.198-2.563-7.042-2.563-4.845 0-6.732.479-6.732 1.972 0 1.352.873 1.718 4.422 1.83l8.957.254c14.76.423 19.463 3.437 19.463 10.535h.028ZM54.304 28.899c4.732-1.042 6.845-3.493 6.845-8.084 0-5.774-4.225-8.647-12.816-8.647H13.041v34.927h35.265c9.436 0 13.97-3.24 13.97-9.915 0-4.901-2.394-7.408-7.97-8.281Zm-12.309 8.816H30.533v-3.971h11.463c1.465 0 2.395.732 2.395 1.971 0 1.24-.93 1.972-2.395 1.972v.028ZM41.94 25.52H30.533v-3.971H41.94c1.521 0 2.45.732 2.45 1.971 0 1.24-.929 1.972-2.45 1.972v.028Zm65.291 1.775h31.236v19.829h-14.59l-.789-3.436c-3.295 2.929-7.971 4.478-14.224 4.478-16.534 0-24.082-7.154-24.082-17.886 0-12.816 9.548-19.125 27.012-19.125 17.463 0 25.8 5.69 26.645 14.393h-18.984c-.479-1.577-2.282-2.704-7.661-2.704-5.887 0-8.76 2.084-8.76 6.93 0 4.844 2.873 7.294 9.013 7.294 3.859 0 6.197-.788 7.549-2.62h-12.365v-7.154ZM64.586 12.168h17.999v34.927H64.586V12.168Zm185.478 97.316V54.7h-98.555V0H0v169h310.256v-59.516h-60.192ZM4.676 4.647h142.157V54.7H4.676V4.647Zm0 54.7h240.74v50.137H4.676V59.347ZM305.58 164.352H4.676v-50.193H305.58v50.193Zm-291.159-7.605v-34.926H32.42v34.926H14.42Zm20.9 0v-34.926h18.506l15.688 13.238v-13.238h17.717v34.926H68.98l-15.97-13.153v13.153H35.293h.028Zm53.404-34.926h20.336l9.324 18.562 8.872-18.562h20.224l-18.365 34.926h-22.054l-18.365-34.926h.028Zm103.456 10.788h-25.237v2.506h24.308v8.338h-24.308v2.507h25.237v10.787h-43.236v-34.926h43.236v10.788Zm20.449.478c0 1.352.873 1.719 4.422 1.831l8.957.254c14.76.422 19.464 3.436 19.464 10.534 0 7.915-8.929 12.112-25.801 12.112s-25.35-4.113-25.604-12.985h17.999c.169 1.972 2.45 2.648 7.661 2.648 4.901 0 7.239-.536 7.239-2.028 0-1.352-.873-1.719-4.704-1.831l-8.506-.197c-13.548-.31-19.66-4.056-19.66-10.732 0-8.337 7.548-11.886 25.293-11.886 17.745 0 24.731 3.746 24.984 12.872h-17.998c-.169-1.944-2.197-2.563-7.042-2.563s-6.732.479-6.732 1.971h.028Zm49.433 23.689v-20.337h-15.745v-14.59h49.488v14.59h-15.745v20.337h-17.998Z" fill="#0BC179"/></svg>